#Comment line ignore any data following # character 
#Hierarchical Translation and Rotation (.htr) file 
[Header]	
#Header keywords are followed by a single value 
FileType HTR		#Single word string
DataType HTRS		#Translation followed by rotation and scale data
FileVersion 1		#integer
NumSegments 64		#integer
NumFrames 3		#integer
DataFrameRate 30		#integer, data frame rate in this file
EulerRotationOrder ZYX
CalibrationUnits mm
RotationUnits Degrees
GlobalAxisofGravity Y
BoneLengthAxis Y
ScaleFactor 1.00
[SegmentNames&Hierarchy]
#CHILD	PARENT
Pinger_Root GLOBAL
Pelvis Pinger_Root
L_Hip Pelvis
R_Hip Pelvis
Rear_Leg01 Pelvis
Spine1 Pelvis
L_Leg01 L_Hip
L_Leg02 L_Leg01
L_Leg03 L_Leg02
L_Foot L_Leg03
L_Toe1_01 L_Foot
L_Toe2_01 L_Foot
L_Toe3_01 L_Foot
planeAlignerLeft L_Foot
L_Toe1_02 L_Toe1_01
L_Toe1_03 L_Toe1_02
L_Toe2_02 L_Toe2_01
L_Toe2_03 L_Toe2_02
L_Toe3_02 L_Toe3_01
L_Toe3_03 L_Toe3_02
planeLockWeightLeft planeAlignerLeft
R_Leg01 R_Hip
R_Leg02 R_Leg01
R_Leg03 R_Leg02
R_Foot R_Leg03
planeAlignerRight R_Foot
R_Toe1_01 R_Foot
R_Toe2_01 R_Foot
R_Toe3_01 R_Foot
planeLockWeightRight planeAlignerRight
R_Toe1_02 R_Toe1_01
R_Toe1_03 R_Toe1_02
R_Toe2_02 R_Toe2_01
R_Toe2_03 R_Toe2_02
R_Toe3_02 R_Toe3_01
R_Toe3_03 R_Toe3_02
Rear_Leg02 Rear_Leg01
Rear_Leg03 Rear_Leg02
Rear_Leg04 Rear_Leg03
Rear_Foot Rear_Leg04
planeAlignerCenter Rear_Foot
Rear_Toe1_01 Rear_Foot
Rear_Toe2_01 Rear_Foot
Rear_Toe3_01 Rear_Foot
planeLockWeightCenter planeAlignerCenter
Rear_Toe1_02 Rear_Toe1_01
Rear_Toe1_03 Rear_Toe1_02
Rear_Toe2_02 Rear_Toe2_01
Rear_Toe2_03 Rear_Toe2_02
Rear_Toe3_02 Rear_Toe3_01
Rear_Toe3_03 Rear_Toe3_02
Back_Bone Spine1
Head Spine1
Motor_Bone Back_Bone
Ping_Mechanism Back_Bone
BN_LookIK Head
bottomMouth Head
L_Mouth01 Head
L_mouthFront Head
mouthGun Head
R_Mouth01 Head
R_mouthFront Head
TopMouth Head
weapon_bone Head
[BasePosition]
#SegmentName Tx, Ty, Tz, Rx, Ry, Rz, BoneLength
Pinger_Root 0.000000 0.000000 0.000000 -90.000000 0.000000 0.000000 10.000000 
Pelvis 0.000000 0.000000 0.000000 0.000000 0.000000 0.000000 10.000000 
L_Hip 0.000000 0.000000 0.000000 0.000000 0.000000 0.000000 10.000000 
R_Hip 0.000000 0.000000 0.000000 0.000000 0.000000 0.000000 10.000000 
Rear_Leg01 0.000000 0.000000 0.000000 0.000000 0.000000 0.000000 10.000000 
Spine1 0.000000 0.000000 0.000000 0.000000 0.000000 0.000000 10.000000 
L_Leg01 0.000000 0.000000 0.000000 0.000000 0.000000 0.000000 10.000000 
L_Leg02 0.000000 0.000000 0.000000 0.000000 0.000000 0.000000 10.000000 
L_Leg03 0.000000 0.000000 0.000000 0.000000 0.000000 0.000000 10.000000 
L_Foot 0.000000 0.000000 0.000000 0.000000 0.000000 0.000000 10.000000 
L_Toe1_01 0.000000 0.000000 0.000000 0.000000 0.000000 0.000000 10.000000 
L_Toe2_01 0.000000 0.000000 0.000000 0.000000 0.000000 0.000000 10.000000 
L_Toe3_01 0.000000 0.000000 0.000000 0.000000 0.000000 0.000000 10.000000 
planeAlignerLeft 0.000000 0.000000 0.000000 0.000000 0.000000 0.000000 10.000000 
L_Toe1_02 0.000000 0.000000 0.000000 0.000000 0.000000 0.000000 10.000000 
L_Toe1_03 0.000000 0.000000 0.000000 0.000000 0.000000 0.000000 10.000000 
L_Toe2_02 0.000000 0.000000 0.000000 0.000000 0.000000 0.000000 10.000000 
L_Toe2_03 0.000000 0.000000 0.000000 0.000000 0.000000 0.000000 10.000000 
L_Toe3_02 0.000000 0.000000 0.000000 0.000000 0.000000 0.000000 10.000000 
L_Toe3_03 0.000000 0.000000 0.000000 0.000000 0.000000 0.000000 10.000000 
planeLockWeightLeft 0.000000 0.000000 0.000000 0.000000 0.000000 0.000000 10.000000 
R_Leg01 0.000000 0.000000 0.000000 0.000000 0.000000 0.000000 10.000000 
R_Leg02 0.000000 0.000000 0.000000 0.000000 0.000000 0.000000 10.000000 
R_Leg03 0.000000 0.000000 0.000000 0.000000 0.000000 0.000000 10.000000 
R_Foot 0.000000 0.000000 0.000000 0.000000 0.000000 0.000000 10.000000 
planeAlignerRight 0.000000 0.000000 0.000000 0.000000 0.000000 0.000000 10.000000 
R_Toe1_01 0.000000 0.000000 0.000000 0.000000 0.000000 0.000000 10.000000 
R_Toe2_01 0.000000 0.000000 0.000000 0.000000 0.000000 0.000000 10.000000 
R_Toe3_01 0.000000 0.000000 0.000000 0.000000 0.000000 0.000000 10.000000 
planeLockWeightRight 0.000000 0.000000 0.000000 0.000000 0.000000 0.000000 10.000000 
R_Toe1_02 0.000000 0.000000 0.000000 0.000000 0.000000 0.000000 10.000000 
R_Toe1_03 0.000000 0.000000 0.000000 0.000000 0.000000 0.000000 10.000000 
R_Toe2_02 0.000000 0.000000 0.000000 0.000000 0.000000 0.000000 10.000000 
R_Toe2_03 0.000000 0.000000 0.000000 0.000000 0.000000 0.000000 10.000000 
R_Toe3_02 0.000000 0.000000 0.000000 0.000000 0.000000 0.000000 10.000000 
R_Toe3_03 0.000000 0.000000 0.000000 0.000000 0.000000 0.000000 10.000000 
Rear_Leg02 0.000000 0.000000 0.000000 0.000000 0.000000 0.000000 10.000000 
Rear_Leg03 0.000000 0.000000 0.000000 0.000000 0.000000 0.000000 10.000000 
Rear_Leg04 0.000000 0.000000 0.000000 0.000000 0.000000 0.000000 10.000000 
Rear_Foot 0.000000 0.000000 0.000000 0.000000 0.000000 0.000000 10.000000 
planeAlignerCenter 0.000000 0.000000 0.000000 0.000000 0.000000 0.000000 10.000000 
Rear_Toe1_01 0.000000 0.000000 0.000000 0.000000 0.000000 0.000000 10.000000 
Rear_Toe2_01 0.000000 0.000000 0.000000 0.000000 0.000000 0.000000 10.000000 
Rear_Toe3_01 0.000000 0.000000 0.000000 0.000000 0.000000 0.000000 10.000000 
planeLockWeightCenter 0.000000 0.000000 0.000000 0.000000 0.000000 0.000000 10.000000 
Rear_Toe1_02 0.000000 0.000000 0.000000 0.000000 0.000000 0.000000 10.000000 
Rear_Toe1_03 0.000000 0.000000 0.000000 0.000000 0.000000 0.000000 10.000000 
Rear_Toe2_02 0.000000 0.000000 0.000000 0.000000 0.000000 0.000000 10.000000 
Rear_Toe2_03 0.000000 0.000000 0.000000 0.000000 0.000000 0.000000 10.000000 
Rear_Toe3_02 0.000000 0.000000 0.000000 0.000000 0.000000 0.000000 10.000000 
Rear_Toe3_03 0.000000 0.000000 0.000000 0.000000 0.000000 0.000000 10.000000 
Back_Bone 0.000000 0.000000 0.000000 0.000000 0.000000 0.000000 10.000000 
Head 0.000000 0.000000 0.000000 0.000000 0.000000 0.000000 10.000000 
Motor_Bone 0.000000 0.000000 0.000000 0.000000 0.000000 0.000000 10.000000 
Ping_Mechanism 0.000000 0.000000 0.000000 0.000000 0.000000 0.000000 10.000000 
BN_LookIK 0.000000 0.000000 0.000000 0.000000 0.000000 0.000000 10.000000 
bottomMouth 0.000000 0.000000 0.000000 0.000000 0.000000 0.000000 10.000000 
L_Mouth01 0.000000 0.000000 0.000000 0.000000 0.000000 0.000000 10.000000 
L_mouthFront 0.000000 0.000000 0.000000 0.000000 0.000000 0.000000 10.000000 
mouthGun 0.000000 0.000000 0.000000 0.000000 0.000000 0.000000 10.000000 
R_Mouth01 0.000000 0.000000 0.000000 0.000000 0.000000 0.000000 10.000000 
R_mouthFront 0.000000 0.000000 0.000000 0.000000 0.000000 0.000000 10.000000 
TopMouth 0.000000 0.000000 0.000000 0.000000 0.000000 0.000000 10.000000 
weapon_bone 0.000000 0.000000 0.000000 0.000000 0.000000 0.000000 10.000000 
#Beginning of Data. Separated by tabs
#Fr	Tx	Ty	Tz	Rx	Ry	Rz	SF
[Pinger_Root]
23 0.000000 0.000000 0.000000 -0.000075 -0.000000 -0.000020 0.000000
24 0.000000 0.000000 0.000000 -0.000075 -0.000000 -0.000020 0.000000
25 0.000000 0.000000 0.000000 -0.000075 -0.000000 -0.000020 0.000000
[Pelvis]
23 170.126358 1263.211792 3736.844971 -119.748093 -80.567307 112.304909 3948.247314
24 157.806061 1192.847168 3836.616943 -128.396103 -79.724747 121.029137 4020.872803
25 145.485748 1122.482544 3936.389160 -133.965393 -78.994324 126.604607 4095.887207
[L_Hip]
23 5.766392 125.831482 872.656799 179.059906 -49.656082 101.463516 881.701050
24 5.766392 125.831482 872.656799 169.888565 -48.277439 111.259697 881.701050
25 5.766392 125.831482 872.656799 162.884171 -46.429573 119.143677 881.701050
[R_Hip]
23 5.765438 125.836372 -872.654907 92.571815 86.347412 160.011734 881.699829
24 5.765438 125.836372 -872.654907 86.920746 79.383736 159.192108 881.699829
25 5.765438 125.836372 -872.654907 83.971359 73.750854 160.703476 881.699829
[Rear_Leg01]
23 -192.298416 -925.602966 -0.001907 167.460754 1.633769 -137.930130 945.367432
24 -192.298416 -925.602966 -0.001907 166.431564 0.236548 -139.372559 945.367432
25 -192.298416 -925.602966 -0.001907 165.732391 -0.806823 -140.801605 945.367432
[Spine1]
23 290.604584 5.007505 0.000477 6.496018 -0.819696 26.806946 290.647736
24 290.604584 5.007505 0.000477 7.582560 1.153281 25.602974 290.647736
25 290.604584 5.007505 0.000477 8.420051 2.737685 24.284655 290.647736
[L_Leg01]
23 761.932007 -0.002384 -0.069261 39.222675 -10.385884 -27.499651 761.932068
24 761.932007 -0.002384 -0.069261 37.544361 -9.976509 -15.563169 761.932068
25 761.932007 -0.002384 -0.069261 35.748413 -9.972541 -5.406498 761.932068
[L_Leg02]
23 1441.140503 -0.000954 -0.000715 7.309186 2.782161 -136.285858 1441.140503
24 1441.140503 -0.000954 -0.000715 7.396912 2.645053 -141.572220 1441.140503
25 1441.140503 -0.000954 -0.000715 7.266945 2.284961 -144.591324 1441.140503
[L_Leg03]
23 1686.963989 -0.000715 -0.000954 -0.117493 0.072866 141.998886 1686.963989
24 1686.963989 -0.000715 -0.000954 -0.111795 0.068846 141.020737 1686.963989
25 1686.963989 -0.000715 -0.000954 -0.106551 0.064084 139.126450 1686.963989
[L_Foot]
23 3041.570068 -30.715107 11.297464 -5.559612 26.513256 50.569965 3041.746094
24 3041.570068 -30.715107 11.297464 -4.704736 22.873835 52.078194 3041.746094
25 3041.570068 -30.715107 11.297464 -3.935087 19.630848 52.847546 3041.746094
[L_Toe1_01]
23 -188.216690 -224.732346 -21.137953 94.032700 -3.175668 -177.691559 293.899567
24 -188.216690 -224.732346 -21.137953 93.975197 -4.164679 -176.434647 293.899567
25 -188.216690 -224.732346 -21.137953 93.428314 -5.553555 -169.965561 293.899567
[L_Toe2_01]
23 200.746536 -219.926590 148.838394 -95.419846 -27.568823 -40.115562 332.896027
24 200.746536 -219.926590 148.838394 -93.850189 -27.405107 -43.600315 332.896027
25 200.746536 -219.926590 148.838394 -92.297478 -27.157202 -47.072281 332.896027
[L_Toe3_01]
23 188.832520 -219.859131 -191.078659 -99.832993 23.781916 -64.024277 347.140900
24 188.832520 -219.859131 -191.078659 -99.833725 20.757288 -64.287666 347.140900
25 188.832520 -219.859131 -191.078659 -99.774513 17.942066 -64.895004 347.140900
[planeAlignerLeft]
23 0.812531 -811.448792 -0.314951 0.000000 -90.000000 -90.001900 811.449280
24 0.812531 -811.448792 -0.314951 0.000000 -90.000000 -90.001900 811.449280
25 0.812531 -811.448792 -0.314951 0.000000 -90.000000 -90.001900 811.449280
[L_Toe1_02]
23 413.761139 0.000477 0.000000 0.001661 0.070897 0.001661 413.761139
24 413.761139 0.000477 0.000000 0.001661 0.070855 0.001661 413.761139
25 413.761139 0.000477 0.000000 0.001415 -22.098858 0.001415 413.761139
[L_Toe1_03]
23 464.317322 0.000358 -0.000089 0.001673 -0.448396 -0.003292 464.317322
24 464.317322 0.000358 -0.000089 0.001673 -0.448339 -0.003292 464.317322
25 464.317322 0.000358 -0.000089 0.000879 29.664772 -0.003166 464.317322
[L_Toe2_02]
23 342.235809 -0.000477 0.000238 0.004685 -80.817612 0.004685 342.235809
24 342.235809 -0.000477 0.000238 0.001178 -79.808197 0.001178 342.235809
25 342.235809 -0.000477 0.000238 0.001180 -77.976448 0.001180 342.235809
[L_Toe2_03]
23 420.210846 -0.000715 0.000000 179.992249 56.828812 179.999542 420.210846
24 420.210846 -0.000715 0.000000 -179.999008 66.118271 -179.995438 420.210846
25 420.210846 -0.000715 0.000000 -179.996994 76.159859 -179.993484 420.210846
[L_Toe3_02]
23 329.270111 0.000954 0.000000 0.004676 -84.379173 0.004676 329.270111
24 329.270111 0.000954 0.000000 0.004677 -83.892822 0.004677 329.270111
25 329.270111 0.000954 0.000000 0.001176 -83.104034 0.001176 329.270111
[L_Toe3_03]
23 439.137451 -0.001907 0.000954 179.992508 54.163097 179.999863 439.137451
24 439.137451 -0.001907 0.000954 179.991913 59.596863 179.999146 439.137451
25 439.137451 -0.001907 0.000954 179.995895 65.601082 -179.998734 439.137451
[planeLockWeightLeft]
23 -0.000954 0.000238 -0.000305 -0.011826 -0.004376 0.005620 0.001029
24 -0.000954 0.000238 -0.000305 -0.011826 -0.004376 0.005620 0.001029
25 -0.000954 0.000238 -0.000305 -0.011826 -0.004376 0.005620 0.001029
[R_Leg01]
23 761.455627 -0.001907 -0.000358 97.638428 8.026459 74.741943 761.455688
24 761.455627 -0.001907 -0.000358 96.326653 0.638701 69.046417 761.455688
25 761.455627 -0.001907 -0.000358 95.839630 -6.541823 64.210014 761.455688
[R_Leg02]
23 1441.140625 0.000000 -0.000238 -2.015648 -0.562301 -91.209702 1441.140625
24 1441.140625 0.000000 -0.000238 -1.764802 -0.413303 -93.507484 1441.140625
25 1441.140625 0.000000 -0.000238 -1.534465 -0.277435 -95.373505 1441.140625
[R_Leg03]
23 1686.963989 0.000954 0.001431 0.110335 -0.066844 139.964493 1686.963989
24 1686.963989 0.000954 0.001431 0.105007 -0.062215 138.127289 1686.963989
25 1686.963989 0.000954 0.001431 0.095669 -0.053711 135.807907 1686.963989
[R_Foot]
23 3041.560059 -30.531288 -11.204481 -5.426008 -17.792776 41.146748 3041.734131
24 3041.560059 -30.531288 -11.204481 -4.904429 -21.089691 42.107697 3041.734131
25 3041.560059 -30.531288 -11.204481 -4.438538 -23.574268 42.833912 3041.734131
[planeAlignerRight]
23 -0.635147 -812.270569 -0.364304 0.000000 -89.960434 -90.005180 812.270874
24 -0.635147 -812.270569 -0.364304 0.000000 -89.960434 -90.005180 812.270874
25 -0.635147 -812.270569 -0.364304 0.000000 -89.960434 -90.005180 812.270874
[R_Toe1_01]
23 -188.383347 -224.864899 21.052242 77.323639 -4.363739 -175.380783 294.101532
24 -188.383347 -224.864899 21.052242 77.323647 -4.363457 -175.381134 294.101532
25 -188.383347 -224.864899 21.052242 77.323647 -4.363175 -175.381470 294.101532
[R_Toe2_01]
23 200.637817 -220.002121 -148.787384 -84.724457 32.131763 -46.480873 332.857574
24 200.637817 -220.002121 -148.787384 -84.724457 32.131763 -46.480873 332.857574
25 200.637817 -220.002121 -148.787384 -84.724457 32.131763 -46.480873 332.857574
[R_Toe3_01]
23 188.606735 -220.092957 191.126343 -71.126053 -17.500595 -68.416458 347.192566
24 188.606735 -220.092957 191.126343 -71.124771 -17.504217 -68.419098 347.192566
25 188.606735 -220.092957 191.126343 -71.123482 -17.507843 -68.421745 347.192566
[planeLockWeightRight]
23 -0.000477 0.000000 0.000000 -0.011823 -0.004379 -0.000027 0.000477
24 -0.000477 0.000000 0.000000 -0.011823 -0.004379 -0.000027 0.000477
25 -0.000477 0.000000 0.000000 -0.011823 -0.004379 -0.000027 0.000477
[R_Toe1_02]
23 413.762085 0.000477 -0.000119 0.001385 -25.813822 0.001385 413.762085
24 413.762085 0.000477 -0.000119 0.001385 -25.809647 0.001385 413.762085
25 413.762085 0.000477 -0.000119 0.001385 -25.805462 0.001385 413.762085
[R_Toe1_03]
23 464.317810 0.000000 0.001088 0.004309 58.392216 0.004309 464.317810
24 464.317810 0.000000 0.001088 0.004309 58.392216 0.004309 464.317810
25 464.317810 0.000000 0.001088 0.004309 58.392216 0.004309 464.317810
[R_Toe2_02]
23 342.234741 -0.000954 0.000238 -0.002336 -78.156868 -0.002336 342.234741
24 342.234741 -0.000954 0.000238 -0.002336 -78.156532 -0.002336 342.234741
25 342.234741 -0.000954 0.000238 -0.002336 -78.156151 -0.002336 342.234741
[R_Toe2_03]
23 420.210846 0.000715 -0.000268 -179.993973 74.508293 -179.997513 420.210846
24 420.210846 0.000715 -0.000268 -179.993973 74.508636 -179.997513 420.210846
25 420.210846 0.000715 -0.000268 -179.993973 74.508995 -179.997513 420.210846
[R_Toe3_02]
23 329.270355 -0.000477 -0.000954 0.001177 -80.759201 0.001177 329.270355
24 329.270355 -0.000477 -0.000954 0.001177 -80.759201 0.001177 329.270355
25 329.270355 -0.000477 -0.000954 0.001177 -80.759201 0.001177 329.270355
[R_Toe3_03]
23 439.137939 0.000238 0.001431 -179.996521 77.413445 -179.992996 439.137939
24 439.137939 0.000238 0.001431 -179.996521 77.413818 -179.992996 439.137939
25 439.137939 0.000238 0.001431 -179.996521 77.414154 -179.992996 439.137939
[Rear_Leg02]
23 1162.777710 -0.029802 0.005960 -2.783366 6.389931 -113.802345 1162.777710
24 1162.777710 -0.029802 0.005960 -2.170028 5.123030 -113.219116 1162.777710
25 1162.777710 -0.029802 0.005960 -1.570711 3.850060 -112.650528 1162.777710
[Rear_Leg03]
23 607.192505 -0.013351 -0.073195 0.010451 -0.005190 69.172325 607.192505
24 607.192505 -0.013351 -0.073195 0.010461 -0.005169 68.943192 607.192505
25 607.192505 -0.013351 -0.073195 0.010472 -0.005148 68.714043 607.192505
[Rear_Leg04]
23 995.874512 -0.020504 -0.011921 -0.040400 -0.018352 68.500885 995.874573
24 995.874512 -0.020504 -0.011921 -0.040334 -0.018497 68.089035 995.874573
25 995.874512 -0.020504 -0.011921 -0.040267 -0.018642 67.677200 995.874573
[Rear_Foot]
23 3096.176270 -0.067472 -0.041425 86.953247 84.566536 -78.634415 3096.176270
24 3096.176270 -0.067472 -0.041425 95.302940 85.581505 -71.809349 3096.176270
25 3096.176270 -0.067472 -0.041425 107.808662 86.475967 -60.827206 3096.176270
[planeAlignerCenter]
23 0.350077 0.966311 -838.790894 0.000009 0.000003 -179.999985 838.791565
24 0.350077 0.966311 -838.790894 0.000009 0.000003 -179.999985 838.791565
25 0.350077 0.966311 -838.790894 0.000009 0.000003 -179.999985 838.791565
[Rear_Toe1_01]
23 0.653352 83.966492 -371.173737 0.288091 41.914127 90.413170 380.553192
24 0.653352 83.966492 -371.173737 0.288095 41.914120 90.413170 380.553192
25 0.653352 83.966492 -371.173737 0.288091 41.914127 90.413170 380.553192
[Rear_Toe2_01]
23 178.200760 -294.826019 -362.060547 -7.196267 34.406261 -66.271294 499.765686
24 178.200760 -294.826019 -362.060547 -7.196267 34.406261 -66.271294 499.765686
25 178.200760 -294.826019 -362.060547 -7.196267 34.406261 -66.271294 499.765686
[Rear_Toe3_01]
23 -153.359680 -308.780914 -362.060852 3.289418 33.518005 -112.540970 499.952881
24 -153.359680 -308.780914 -362.060852 3.289418 33.518005 -112.540970 499.952881
25 -153.359680 -308.780914 -362.060852 3.289418 33.518005 -112.540970 499.952881
[planeLockWeightCenter]
23 -0.000062 0.000238 0.000000 -0.011814 -0.004373 -0.000015 0.000246
24 -0.000062 0.000238 0.000000 -0.011814 -0.004373 -0.000015 0.000246
25 -0.000062 0.000238 0.000000 -0.011814 -0.004373 -0.000015 0.000246
[Rear_Toe1_02]
23 379.707825 0.194073 0.000477 -0.000242 -31.681561 0.006934 379.707855
24 379.707825 0.194073 0.000477 -0.000242 -31.681246 0.006934 379.707855
25 379.707825 0.194073 0.000477 -0.000242 -31.680918 0.006934 379.707855
[Rear_Toe1_03]
23 500.129700 0.165701 0.000119 -0.000103 51.907619 0.007296 500.129761
24 500.129700 0.165701 0.000119 -0.000103 51.907291 0.007296 500.129761
25 500.129700 0.165701 0.000119 -0.000103 51.906952 0.007296 500.129761
[Rear_Toe2_02]
23 340.494507 0.000238 -0.000954 0.001192 -69.854523 0.001192 340.494507
24 340.494507 0.000238 -0.000954 0.001192 -69.854523 0.001192 340.494507
25 340.494507 0.000238 -0.000954 0.001192 -69.854523 0.001192 340.494507
[Rear_Toe2_03]
23 433.103577 0.000000 0.000238 0.006696 69.810326 0.006696 433.103546
24 433.103577 0.000000 0.000238 0.006696 69.810341 0.006696 433.103546
25 433.103577 0.000000 0.000238 0.006696 69.810326 0.006696 433.103546
[Rear_Toe3_02]
23 340.494141 -0.000358 -0.000477 0.008288 -67.274704 -0.009460 340.494171
24 340.494141 -0.000358 -0.000477 0.008288 -67.274704 -0.009460 340.494171
25 340.494141 -0.000358 -0.000477 0.008288 -67.274704 -0.009460 340.494171
[Rear_Toe3_03]
23 433.103577 0.001431 -0.000238 -0.000972 65.958984 -0.004547 433.103546
24 433.103577 0.001431 -0.000238 -0.000972 65.958984 -0.004547 433.103546
25 433.103577 0.001431 -0.000238 -0.000972 65.958984 -0.004547 433.103546
[Back_Bone]
23 1312.175781 -701.934692 0.000954 -2.244946 5.923644 -94.238739 1488.125488
24 1312.175781 -701.934692 0.000954 -2.524319 6.799489 -94.829857 1488.125488
25 1312.175781 -701.934692 0.000954 -2.683933 7.460785 -95.109970 1488.125488
[Head]
23 1406.159424 809.709290 0.001431 -0.608777 -1.080209 33.618923 1622.625488
24 1406.159424 809.709290 0.001431 -0.579141 -0.817710 32.792450 1622.625488
25 1406.159424 809.709290 0.001431 -0.554534 -0.494056 31.621584 1622.625488
[Motor_Bone]
23 1158.364380 -417.834747 0.000477 2.393476 6.727155 -123.909195 1231.419434
24 1158.364380 -417.834747 0.000477 2.002668 9.097207 -122.889267 1231.419434
25 1158.364380 -417.834747 0.000477 1.148558 11.093448 -121.605438 1231.419434
[Ping_Mechanism]
23 1256.346069 -451.701050 -15.111462 0.000103 -0.000053 82.120995 1335.165771
24 1258.706665 -449.419556 -22.864677 0.000103 -0.000053 82.120995 1336.728516
25 1260.657959 -447.153931 -28.391060 0.000103 -0.000053 82.120995 1337.912964
[BN_LookIK]
23 193.241119 1380.371704 -0.002861 0.000000 89.965736 -31.038179 1393.832153
24 193.241119 1380.371704 -0.002861 0.000000 89.965736 -31.038179 1393.832153
25 193.241119 1380.371704 -0.002861 0.000000 89.965736 -31.038179 1393.832153
[bottomMouth]
23 -435.092926 615.759399 -0.000954 -0.000022 0.000016 73.527184 753.966492
24 -435.092926 615.759399 -0.000954 -0.000022 0.000016 73.527184 753.966492
25 -435.092926 615.759399 -0.000954 -0.000022 0.000016 73.527184 753.966492
[L_Mouth01]
23 554.440979 7.658243 838.222046 150.204178 23.759130 109.605339 1005.027161
24 554.440979 7.658243 838.222046 150.204178 23.759130 109.605339 1005.027161
25 554.440979 7.658243 838.222046 150.204178 23.759130 109.605339 1005.027161
[L_mouthFront]
23 551.629089 934.514771 339.150421 0.000081 2.804060 79.119301 1136.941284
24 551.629089 934.514771 339.150421 0.000081 2.804060 79.119301 1136.941284
25 551.629089 934.514771 339.150421 0.000081 2.804060 79.119301 1136.941284
[mouthGun]
23 55.332661 1627.420898 0.000000 0.000023 0.000009 -11.038128 1628.361328
24 55.332661 1627.420898 0.000000 0.000023 0.000009 -11.038128 1628.361328
25 55.332661 1627.420898 0.000000 0.000023 0.000009 -11.038128 1628.361328
[R_Mouth01]
23 554.442383 7.659197 -838.223938 29.795891 -23.759109 109.605331 1005.029541
24 554.442383 7.659197 -838.223938 29.795891 -23.759109 109.605331 1005.029541
25 554.442383 7.659197 -838.223938 29.795891 -23.759109 109.605331 1005.029541
[R_mouthFront]
23 551.629089 934.514282 -339.151367 0.000029 -2.803930 79.119133 1136.941162
24 551.629089 934.514282 -339.151367 0.000029 -2.803930 79.119133 1136.941162
25 551.629089 934.514282 -339.151367 0.000029 -2.803930 79.119133 1136.941162
[TopMouth]
23 461.269867 -56.106091 -0.008583 -0.000059 -0.000268 92.025169 464.669525
24 461.269867 -56.106091 -0.008583 -0.000059 -0.000268 92.025169 464.669525
25 461.269867 -56.106091 -0.008583 -0.000059 -0.000268 92.025169 464.669525
[weapon_bone]
23 -987.239868 1448.372803 0.001431 0.000000 89.965736 -31.038221 1752.833740
24 -987.239868 1448.372803 0.001431 0.000000 89.965736 -31.038221 1752.833740
25 -987.239868 1448.372803 0.001431 0.000000 89.965736 -31.038221 1752.833740
